<svg width="90" height="90" viewBox="0 0 90 90" fill="none" xmlns="http://www.w3.org/2000/svg">
<path d="M88.2923 28.0728L47.1595 0.650943C45.7555 -0.213021 44.2571 -0.220932 42.8403 0.650943L1.70754 28.0728C0.652851 28.7758 0 30.0315 0 31.287V58.7087C0 59.9643 0.652851 61.2199 1.70771 61.923L42.8405 89.3487C44.2445 90.2127 45.7428 90.2206 47.1596 89.3487L88.2924 61.923C89.3471 61.22 90.0002 59.9643 90.0002 58.7087V31.287C90 30.0315 89.3471 28.7758 88.2923 28.0728ZM48.8672 11.0971L79.1518 31.287L65.6418 40.3272L48.8672 29.1273V11.0971ZM41.1328 11.0971V29.1273L24.3582 40.3272L10.8482 31.287L41.1328 11.0971ZM7.73437 38.5191L17.4275 44.9979L7.73437 51.4767V38.5191ZM41.1328 78.8987L10.8482 58.7088L24.3582 49.6686L41.1328 60.8685V78.8987ZM45 54.1385L31.3392 44.9979L45 35.8573L58.6608 44.9979L45 54.1385ZM48.8672 78.8987V60.8685L65.6418 49.6686L79.1518 58.7088L48.8672 78.8987ZM82.2656 51.4767L72.5725 44.9979L82.2656 38.5191V51.4767Z" fill="white"/>
</svg>
