<svg width="90" height="90" viewBox="0 0 90 90" fill="none" xmlns="http://www.w3.org/2000/svg">
<path d="M30.1028 72.4679C30.1028 72.8401 29.6855 73.1378 29.1593 73.1378C28.5605 73.1937 28.1431 72.8959 28.1431 72.4679C28.1431 72.0957 28.5605 71.7979 29.0867 71.7979C29.6311 71.7421 30.1028 72.0398 30.1028 72.4679ZM24.4597 71.6304C24.3327 72.0026 24.6956 72.4306 25.2399 72.5423C25.7117 72.7284 26.2561 72.5423 26.3649 72.1701C26.4738 71.7979 26.129 71.3699 25.5847 71.2024C25.1129 71.0721 24.5867 71.2582 24.4597 71.6304ZM32.4798 71.314C31.9536 71.4443 31.5907 71.7979 31.6452 72.2259C31.6996 72.5981 32.1714 72.8401 32.7157 72.7098C33.2419 72.5795 33.6048 72.2259 33.5504 71.8537C33.496 71.5001 33.0061 71.2582 32.4798 71.314ZM44.4194 0C19.252 0 0 19.5965 0 45.4087C0 66.0474 12.6653 83.7084 30.7561 89.9242C33.0786 90.3522 33.8952 88.882 33.8952 87.6723C33.8952 86.5185 33.8407 80.1539 33.8407 76.2457C33.8407 76.2457 21.1391 79.0372 18.4718 70.6999C18.4718 70.6999 16.4032 65.2843 13.4274 63.8886C13.4274 63.8886 9.27218 60.9668 13.7177 61.0226C13.7177 61.0226 18.2359 61.3948 20.7218 65.8241C24.6956 73.0076 31.3548 70.9418 33.9496 69.7136C34.3669 66.7359 35.5464 64.6702 36.8528 63.4419C26.7097 62.2881 16.4758 60.7807 16.4758 42.8778C16.4758 37.76 17.8548 35.1918 20.7581 31.9164C20.2863 30.7067 18.744 25.7192 21.2298 19.2801C25.0222 18.0704 33.75 24.3048 33.75 24.3048C37.379 23.2627 41.2802 22.723 45.1452 22.723C49.0101 22.723 52.9113 23.2627 56.5403 24.3048C56.5403 24.3048 65.2682 18.0518 69.0605 19.2801C71.5464 25.7378 70.004 30.7067 69.5323 31.9164C72.4355 35.2104 74.2137 37.7786 74.2137 42.8778C74.2137 60.8365 63.5262 62.2695 53.3831 63.4419C55.0524 64.9121 56.4677 67.7037 56.4677 72.077C56.4677 78.3487 56.4133 86.1091 56.4133 87.6351C56.4133 88.8448 57.248 90.315 59.5524 89.8869C77.6976 83.7084 90 66.0474 90 45.4087C90 19.5965 69.5867 0 44.4194 0ZM17.6371 64.1864C17.4012 64.3725 17.4556 64.8005 17.7641 65.1541C18.0544 65.4518 18.4718 65.5821 18.7077 65.3402C18.9435 65.1541 18.8891 64.726 18.5806 64.3725C18.2903 64.0747 17.873 63.9444 17.6371 64.1864ZM15.6774 62.6789C15.5504 62.9209 15.7319 63.2186 16.0948 63.4047C16.3851 63.5908 16.748 63.535 16.875 63.2745C17.002 63.0325 16.8206 62.7348 16.4577 62.5487C16.0948 62.437 15.8044 62.4928 15.6774 62.6789ZM21.5565 69.3041C21.2661 69.5461 21.375 70.1044 21.7923 70.458C22.2097 70.886 22.7359 70.9418 22.9718 70.6441C23.2077 70.4021 23.0988 69.8438 22.7359 69.4902C22.3367 69.0622 21.7923 69.0064 21.5565 69.3041ZM19.4879 66.5685C19.1976 66.7546 19.1976 67.2384 19.4879 67.6665C19.7782 68.0945 20.2681 68.2806 20.504 68.0945C20.7944 67.8525 20.7944 67.3687 20.504 66.9407C20.25 66.5126 19.7782 66.3265 19.4879 66.5685Z" fill="white"/>
</svg>
