<svg width="90" height="90" viewBox="0 0 90 90" fill="none" xmlns="http://www.w3.org/2000/svg">
<path d="M87.894 22.5C85.0837 18.1143 50.6101 0 44.9953 0C39.3805 0 4.89331 18.0686 2.10046 22.5C-0.692395 26.9314 -0.7079 63.0703 2.10046 67.5C4.90882 71.9297 39.3863 90 44.9953 90C50.6042 90 85.0837 71.9086 87.892 67.5C90.7004 63.0914 90.7043 26.8945 87.894 22.5ZM56.6183 72.8121C55.843 72.8121 48.6894 66.5244 49.2534 66.0111C49.422 65.8582 50.4666 65.751 52.6548 65.6895C52.6548 61.0787 52.7691 53.6326 52.837 50.516C52.837 50.1645 52.7517 49.9131 52.7517 49.4877H37.2602C37.2602 50.7357 37.171 55.851 37.5257 62.2986C37.5703 63.0967 37.2195 63.3533 36.4132 63.3428C34.4499 63.3428 32.4846 63.3234 30.5193 63.3287C29.7247 63.3287 29.3817 63.0598 29.4069 62.2547C29.5852 56.3766 29.9883 47.4891 29.3778 24.8713V24.3141C27.5036 24.2525 26.2031 24.1383 26.0326 23.9906C25.4666 23.4773 32.7269 17.1896 33.4924 17.1896C34.258 17.1896 41.4718 23.4791 40.9097 23.9906C40.7411 24.1436 39.3786 24.2525 37.6594 24.3141V24.8695C37.1904 29.3959 37.2718 38.86 37.1497 43.3951H52.7052C52.7052 42.5953 52.7808 37.2885 52.4726 28.6928C52.4532 28.0969 52.6567 27.784 53.2886 27.7787C55.4341 27.7646 57.5815 27.7559 59.729 27.7682C60.3996 27.7682 60.6147 28.0705 60.6011 28.7139C59.8879 62.3391 60.4694 59.9924 60.4694 65.6877C62.1885 65.7492 63.7293 65.8635 63.8979 66.0111C64.4561 66.5227 57.3819 72.8121 56.6144 72.8121H56.6183Z" fill="white"/>
</svg>
