<svg width="90" height="90" viewBox="0 0 90 90" fill="none" xmlns="http://www.w3.org/2000/svg">
<path d="M45.01 21.9251C32.2404 21.9251 21.9403 32.2275 21.9403 45C21.9403 57.7725 32.2404 68.0749 45.01 68.0749C57.7797 68.0749 68.0798 57.7725 68.0798 45C68.0798 32.2275 57.7797 21.9251 45.01 21.9251ZM45.01 60.0017C36.7579 60.0017 30.0117 53.274 30.0117 45C30.0117 36.726 36.7379 29.9983 45.01 29.9983C53.2822 29.9983 60.0084 36.726 60.0084 45C60.0084 53.274 53.2621 60.0017 45.01 60.0017ZM74.4044 20.9813C74.4044 23.9736 71.995 26.3634 69.0234 26.3634C66.0318 26.3634 63.6425 23.9535 63.6425 20.9813C63.6425 18.009 66.0519 15.5991 69.0234 15.5991C71.995 15.5991 74.4044 18.009 74.4044 20.9813ZM89.6838 26.4437C89.3424 19.2341 87.696 12.8478 82.4155 7.58619C77.155 2.32456 70.7702 0.677786 63.5622 0.3163C56.1333 -0.105433 33.8667 -0.105433 26.4378 0.3163C19.2499 0.657704 12.865 2.30447 7.5845 7.5661C2.30396 12.8277 0.677635 19.214 0.31623 26.4236C-0.10541 33.8542 -0.10541 56.1257 0.31623 63.5563C0.657557 70.7659 2.30396 77.1522 7.5845 82.4138C12.865 87.6754 19.2298 89.3222 26.4378 89.6837C33.8667 90.1054 56.1333 90.1054 63.5622 89.6837C70.7702 89.3423 77.155 87.6955 82.4155 82.4138C87.676 77.1522 89.3224 70.7659 89.6838 63.5563C90.1054 56.1257 90.1054 33.8743 89.6838 26.4437ZM80.0864 71.5291C78.5204 75.4652 75.4886 78.4977 71.5332 80.0842C65.6102 82.4339 51.5555 81.8917 45.01 81.8917C38.4646 81.8917 24.3898 82.4138 18.4869 80.0842C14.5516 78.5178 11.5198 75.4853 9.93363 71.5291C7.5845 65.6047 8.1266 51.5469 8.1266 45C8.1266 38.4531 7.60457 24.3752 9.93363 18.4709C11.4997 14.5348 14.5315 11.5023 18.4869 9.91576C24.4099 7.5661 38.4646 8.10833 45.01 8.10833C51.5555 8.10833 65.6302 7.58619 71.5332 9.91576C75.4685 11.4822 78.5003 14.5147 80.0864 18.4709C82.4356 24.3953 81.8935 38.4531 81.8935 45C81.8935 51.5469 82.4356 65.6248 80.0864 71.5291Z" fill="white"/>
</svg>
