<svg width="90" height="90" viewBox="0 0 90 90" fill="none" xmlns="http://www.w3.org/2000/svg">
<path d="M20.1455 89.998H1.48661V29.9109H20.1455V89.998ZM10.806 21.7145C4.83951 21.7145 0 16.7725 0 10.806C4.27058e-08 7.94009 1.13849 5.19154 3.16501 3.16501C5.19153 1.13849 7.94009 0 10.806 0C13.672 0 16.4205 1.13849 18.447 3.16501C20.4736 5.19154 21.6121 7.94009 21.6121 10.806C21.6121 16.7725 16.7705 21.7145 10.806 21.7145ZM89.9799 89.998H71.3612V60.748C71.3612 53.777 71.2205 44.8373 61.66 44.8373C51.9589 44.8373 50.4723 52.4109 50.4723 60.2458V89.998H31.8335V29.9109H49.729V38.1074H49.9902C52.4812 33.3864 58.5663 28.4042 67.6446 28.4042C86.5286 28.4042 90 40.8395 90 56.9913V89.998H89.9799Z" fill="white"/>
</svg>
