<svg width="90" height="90" viewBox="0 0 90 90" fill="none" xmlns="http://www.w3.org/2000/svg">
<path d="M90 45C90 69.8589 69.8589 90 45 90C40.3548 90 35.8911 89.2923 31.6815 87.9859C33.5141 84.9919 36.254 80.0927 37.2702 76.1915C37.8145 74.0867 40.0645 65.4859 40.0645 65.4859C41.5343 68.2802 45.8165 70.6573 50.371 70.6573C63.9436 70.6573 73.7238 58.1734 73.7238 42.6593C73.7238 27.7984 61.5847 16.6754 45.9798 16.6754C26.5645 16.6754 16.2399 29.7036 16.2399 43.9113C16.2399 50.5161 19.7601 58.7359 25.3669 61.3488C26.2198 61.748 26.6734 61.5665 26.873 60.75C27.0181 60.1331 27.7802 57.0665 28.125 55.6512C28.2339 55.1976 28.1794 54.7984 27.8165 54.3629C25.9839 52.0948 24.496 47.9577 24.496 44.0927C24.496 34.1673 32.0081 24.5685 44.8186 24.5685C55.869 24.5685 63.6169 32.0988 63.6169 42.877C63.6169 55.0524 57.4657 63.4899 49.4637 63.4899C45.0544 63.4899 41.7339 59.8427 42.8044 55.3609C44.0746 50.0081 46.5242 44.2379 46.5242 40.373C46.5242 36.9254 44.6734 34.0403 40.8266 34.0403C36.3085 34.0403 32.6794 38.7036 32.6794 44.9637C32.6794 48.9556 34.0222 51.6411 34.0222 51.6411C34.0222 51.6411 29.5766 70.4758 28.7601 73.996C27.8528 77.879 28.2157 83.3589 28.5968 86.9153C11.8669 80.3649 0 64.0706 0 45C0 20.1411 20.1411 0 45 0C69.8589 0 90 20.1411 90 45Z" fill="white"/>
</svg>
