<svg width="150" height="150" viewBox="0 0 150 150" fill="none" xmlns="http://www.w3.org/2000/svg">
<path d="M147.784 60.213L75.3696 0L2.95476 60.213C2.10037 60.7568 1.39575 61.4477 0.888594 62.2389C0.381439 63.0301 0.0835914 63.9032 0.0152122 64.799C-0.053167 65.6947 0.109523 66.5923 0.492263 67.431C0.875003 68.2696 1.46886 69.0298 2.23363 69.6599C2.9984 70.2901 3.91623 70.7755 4.92498 71.0834C5.93373 71.3913 7.00985 71.5145 8.08049 71.4445C9.15113 71.3746 10.1913 71.1132 11.1306 70.678C12.0698 70.2429 12.8863 69.6441 13.5246 68.9223L67.8732 23.8722V143.734C67.8732 145.396 68.663 146.99 70.0688 148.165C71.4747 149.34 73.3814 150 75.3696 150C77.3577 150 79.2644 149.34 80.6703 148.165C82.0761 146.99 82.8659 145.396 82.8659 143.734V23.8722L137.214 68.9223C138.626 70.0938 140.537 70.7487 142.526 70.7428C144.515 70.737 146.42 70.0708 147.822 68.891C149.223 67.7111 150.007 66.1142 150 64.4515C149.993 62.7889 149.196 61.1966 147.784 60.0251V60.213Z" fill="white"/>
</svg>
